<mxfile host="app.diagrams.net" modified="2023-09-07T11:59:00.017Z" agent="Mozilla/5.0 (Windows NT 10.0; Win64; x64) AppleWebKit/537.36 (KHTML, like Gecko) Chrome/91.0.4472.77 Safari/537.36" etag="NudKJzE3fKsxfZyYb_Bg" version="21.7.2" type="google">
  <diagram name="Страница — 1" id="8i156Wc73TPoAkFv89ns">
    <mxGraphModel grid="1" page="1" gridSize="10" guides="1" tooltips="1" connect="1" arrows="1" fold="1" pageScale="1" pageWidth="827" pageHeight="1169" math="0" shadow="0">
      <root>
        <mxCell id="0" />
        <mxCell id="1" parent="0" />
        <mxCell id="s_ylQNTRixADe4fKr4fc-1" value="Программная инженерия" style="ellipse;whiteSpace=wrap;html=1;" vertex="1" parent="1">
          <mxGeometry x="340" y="40" width="120" height="80" as="geometry" />
        </mxCell>
        <mxCell id="s_ylQNTRixADe4fKr4fc-2" value="" style="endArrow=none;html=1;rounded=0;" edge="1" parent="1">
          <mxGeometry width="50" height="50" relative="1" as="geometry">
            <mxPoint x="350" y="170" as="sourcePoint" />
            <mxPoint x="400" y="120" as="targetPoint" />
            <Array as="points">
              <mxPoint x="370" y="150" />
            </Array>
          </mxGeometry>
        </mxCell>
        <mxCell id="s_ylQNTRixADe4fKr4fc-3" value="" style="endArrow=none;html=1;rounded=0;entryX=0.527;entryY=0.995;entryDx=0;entryDy=0;entryPerimeter=0;" edge="1" parent="1" target="s_ylQNTRixADe4fKr4fc-1">
          <mxGeometry width="50" height="50" relative="1" as="geometry">
            <mxPoint x="450" y="170" as="sourcePoint" />
            <mxPoint x="410" y="160" as="targetPoint" />
          </mxGeometry>
        </mxCell>
        <mxCell id="s_ylQNTRixADe4fKr4fc-4" value="&lt;font style=&quot;font-size: 6px;&quot;&gt;Программирование&lt;/font&gt;" style="rounded=0;whiteSpace=wrap;html=1;" vertex="1" parent="1">
          <mxGeometry x="320" y="170" width="60" height="20" as="geometry" />
        </mxCell>
        <mxCell id="s_ylQNTRixADe4fKr4fc-5" value="&lt;font style=&quot;font-size: 6px;&quot;&gt;Инженерия&lt;/font&gt;" style="rounded=0;whiteSpace=wrap;html=1;" vertex="1" parent="1">
          <mxGeometry x="420" y="170" width="60" height="20" as="geometry" />
        </mxCell>
        <mxCell id="s_ylQNTRixADe4fKr4fc-6" value="Само написание программ" style="shape=cylinder3;whiteSpace=wrap;html=1;boundedLbl=1;backgroundOutline=1;size=15;" vertex="1" parent="1">
          <mxGeometry x="320" y="190" width="60" height="90" as="geometry" />
        </mxCell>
        <mxCell id="s_ylQNTRixADe4fKr4fc-7" value="Подход к решению проблемы" style="shape=cylinder3;whiteSpace=wrap;html=1;boundedLbl=1;backgroundOutline=1;size=15;" vertex="1" parent="1">
          <mxGeometry x="420" y="190" width="60" height="90" as="geometry" />
        </mxCell>
        <mxCell id="s_ylQNTRixADe4fKr4fc-8" value="" style="endArrow=none;html=1;rounded=0;" edge="1" parent="1">
          <mxGeometry width="50" height="50" relative="1" as="geometry">
            <mxPoint x="480" y="180" as="sourcePoint" />
            <mxPoint x="560" y="180" as="targetPoint" />
          </mxGeometry>
        </mxCell>
        <mxCell id="s_ylQNTRixADe4fKr4fc-9" value="" style="endArrow=none;html=1;rounded=0;" edge="1" parent="1">
          <mxGeometry width="50" height="50" relative="1" as="geometry">
            <mxPoint x="560" y="210" as="sourcePoint" />
            <mxPoint x="560" y="180" as="targetPoint" />
          </mxGeometry>
        </mxCell>
        <mxCell id="s_ylQNTRixADe4fKr4fc-10" value="-&lt;br&gt;изобретение&lt;br&gt;-&lt;br&gt;разработка&lt;br&gt;-&lt;br&gt;создание&lt;br&gt;-&lt;br&gt;внедрение&lt;br&gt;-&lt;br&gt;улучшение&lt;br&gt;-" style="rounded=0;whiteSpace=wrap;html=1;" vertex="1" parent="1">
          <mxGeometry x="520" y="210" width="80" height="170" as="geometry" />
        </mxCell>
        <mxCell id="s_ylQNTRixADe4fKr4fc-12" value="" style="endArrow=none;html=1;rounded=0;" edge="1" parent="1">
          <mxGeometry width="50" height="50" relative="1" as="geometry">
            <mxPoint x="400" y="320" as="sourcePoint" />
            <mxPoint x="350" y="280" as="targetPoint" />
          </mxGeometry>
        </mxCell>
        <mxCell id="s_ylQNTRixADe4fKr4fc-13" value="" style="endArrow=none;html=1;rounded=0;entryX=0.5;entryY=1;entryDx=0;entryDy=0;entryPerimeter=0;" edge="1" parent="1" target="s_ylQNTRixADe4fKr4fc-7">
          <mxGeometry width="50" height="50" relative="1" as="geometry">
            <mxPoint x="400" y="320" as="sourcePoint" />
            <mxPoint x="360" y="290" as="targetPoint" />
          </mxGeometry>
        </mxCell>
        <mxCell id="s_ylQNTRixADe4fKr4fc-14" value="-&lt;br&gt;обсуждение требований к программному продукту&lt;br&gt;-&lt;br&gt;проектирование ПО&lt;br&gt;-&lt;br&gt;конструирование ПО&lt;br&gt;-&lt;br&gt;тестирование ПО&lt;br&gt;-&lt;br&gt;поддержка/сопровождение ПО&lt;br&gt;-" style="rounded=0;whiteSpace=wrap;html=1;" vertex="1" parent="1">
          <mxGeometry x="340" y="320" width="120" height="210" as="geometry" />
        </mxCell>
      </root>
    </mxGraphModel>
  </diagram>
</mxfile>
